<?xml version="1.0" standalone="no"?><!DOCTYPE svg PUBLIC "-//W3C//DTD SVG 1.1//EN" "http://www.w3.org/Graphics/SVG/1.1/DTD/svg11.dtd"><svg t="1774898823270" class="icon" viewBox="0 0 1024 1024" version="1.1" xmlns="http://www.w3.org/2000/svg" p-id="8125" xmlns:xlink="http://www.w3.org/1999/xlink" width="256" height="256"><path d="M713.236 360.489c-10.076 35.267-31.477 59.187-68.403 91.914 44.892-129.25-79.319-95.682-141.025-176.25 10.916 32.296 39.465 59.596 77.64 88.125-67.134-21.402-137.216-73.872-169.534-162.407-33.997 82.658-99.471 127.16-46.592 244.654-27.28-27.279-44.482-56.647-53.719-85.606-1.68 0-3.768-0.84-5.447-1.27-8.807-4.178-16.384-3.768-18.043 7.148-1.27 10.916 1.679 23.08 6.287 34.816 6.287 15.114 15.954 28.14 23.92 35.266 10.916 9.646 18.883 9.646 31.478 12.596 9.216 2.089 13.005 5.877 17.204 13.844 5.447 10.076 5.038 9.646 10.076 19.722 29.368 57.488 70.082 129.68 133.447 129.68 63.386 0 104.08-72.192 133.469-129.68 5.447-10.485 5.038-9.646 10.055-19.722 4.199-7.987 7.987-11.755 17.203-13.844 12.596-2.95 20.583-3.36 31.499-12.596 7.966-6.717 17.203-20.152 23.92-35.246 5.018-11.755 7.967-23.92 6.288-34.836-1.27-10.916-8.807-11.326-18.043-7.148a3.174 3.174 0 0 1-1.68 0.84z m-282.87 313.098v2.52c0 52.039 15.955 89.394 36.517 138.505 13.434 31.458 28.549 67.994 43.212 115.405 14.705-47.431 30.229-83.947 43.234-115.405 20.992-49.11 36.515-86.876 36.515-138.506V616.51c-22.24 18.064-48.68 29.799-80.158 29.799s-57.918-11.735-80.159-29.799v53.72a5.652 5.652 0 0 1 0.84 3.358z m192.226 31.478c-4.628 44.073-19.313 78.91-37.786 122.962a1357.578 1357.578 0 0 0-29.368 73.871c27.689-36.925 65.884-63.365 99.881-96.112 39.445 5.468 83.517 19.312 122.962 24.78-8.806-16.384-19.313-37.355-27.689-52.47 11.735 4.199 23.081 8.807 34.406 13.436 41.124 16.363 60.007 81.817 71.353 137.216l25.6-1.25c-7.987-42.803-26.44-109.117-56.238-138.916a86.405 86.405 0 0 0-31.069-20.152c-57.077-22.65-114.995-43.213-172.052-63.365z m-156.55 197.243c-10.075-28.529-20.561-52.45-29.367-74.281-18.473-43.623-33.178-78.89-37.786-122.962-57.057 20.152-114.975 40.714-171.622 62.955-25.19 10.077-41.575 28.12-53.31 52.45-16.384 33.177-26.87 69.263-33.997 107.028l25.6 1.25c11.326-55.399 30.208-120.853 71.353-137.216 10.895-4.199 22.24-8.807 33.136-13.026-8.806 15.954-18.022 36.516-26.419 52.04 39.445-5.448 83.497-19.292 122.962-24.76 33.567 33.587 71.762 60.006 99.45 96.522z m158.23-252.641v20.561c60.415 21.402 122.122 43.234 182.538 66.745 33.177 13.005 55.828 37.335 71.352 68.813 20.562 41.984 32.727 86.876 40.714 135.577 1.68 10.465-6.717 19.292-17.203 19.292-84.787 0.41-145.633 16.794-203.98 32.727C640.204 1008.886 584.826 1024 510.975 1024c-151.101 0-225.812-63.365-391.168-63.795-10.895 0-18.022-8.807-16.364-19.292 8.397-56.238 29.39-136.807 69.243-176.681a121.815 121.815 0 0 1 42.394-27.71c60.416-23.92 122.122-45.322 182.559-66.724v-25.6c-14.275 13.435-33.997 21.812-57.078 23.921 22.671-17.613 34.816-45.752 20.992-77.64-5.878 44.073-59.187 44.073-91.075 16.384 26.85 12.575 67.994-5.058 67.154-37.785-1.27-53.31-120.873-82.678-132.198-241.726C192.84 153.6 353.997 0 510.955 0c156.53 0 301.732 153.6 305.521 327.762 3.359 143.114-93.184 179.2-126.32 237.957-10.077 18.043-6.308 56.648 33.996 49.09-28.958 18.904-66.744 11.347-68.833-20.561-16.794 27.71-2.519 66.744 29.798 75.98-20.561 4.178-44.073-3.379-60.846-20.582zM301.956 206.479a156.058 156.058 0 0 1 28.529-47.001c-32.727 17.203-66.294 62.116-68.403 101.99 24.78-27.3 63.795-49.11 93.184-57.917-33.588 41.963-45.753 75.53-33.997 117.493 5.017-47.001 51.61-94.822 69.652-142.684-29.368 0.84-60.416 10.076-88.965 28.12z m40.284 263.557a20.152 20.152 0 1 1 0 40.285 20.152 20.152 0 0 1 0-40.285z m336.569 0a20.152 20.152 0 1 0 0 40.285 20.152 20.152 0 0 0 0-40.285z" fill="#2c2c2c" p-id="8126"></path></svg>