<?xml version="1.0" standalone="no"?><!DOCTYPE svg PUBLIC "-//W3C//DTD SVG 1.1//EN" "http://www.w3.org/Graphics/SVG/1.1/DTD/svg11.dtd"><svg t="1774980543837" class="icon" viewBox="0 0 1024 1024" version="1.1" xmlns="http://www.w3.org/2000/svg" p-id="69355" xmlns:xlink="http://www.w3.org/1999/xlink" width="256" height="256"><path d="M246.148842 692.909917C246.148842 643.431105 293.162714 621.149714 354.640795 597.192718 376.465202 588.66929 397.05714 580.644389 411.978332 570.286105 445.746616 546.855332 445.414265 512.096917 445.261937 510.220517 445.421189 506.329236 445.75354 471.536201 411.978332 448.077734 397.05714 437.754069 376.416734 429.673776 354.571555 421.157272 293.141943 397.172581 246.148842 374.898115 246.148842 325.488543L246.148842 166.299158 751.779918 166.299158 751.779918 325.481619C751.779918 374.898115 704.786818 397.165657 643.357208 421.150348 621.512029 429.673776 600.871622 437.754069 585.95043 448.105429 552.182145 471.536201 552.514496 506.322312 552.666824 508.219485 552.507572 512.096917 552.182145 546.855332 585.971202 570.306876 600.871622 580.644389 621.463558 588.66929 643.287968 597.192718 704.7522 621.149714 751.779918 643.424178 751.779918 692.909917L751.779918 850.617567 246.148842 850.617567 246.148842 692.909917ZM837.824307 850.617567 819.565755 850.617567 819.565755 692.909917C819.565755 605.40457 733.583679 574.232777 670.80389 551.45286 649.976537 543.912638 630.305491 536.780931 618.894758 529.448429 606.029993 521.139645 605.36529 510.64288 605.344515 508.960351 605.36529 507.790197 606.029993 497.251889 618.894758 488.963877 630.319339 481.582907 650.031929 474.437352 670.893905 466.86251 733.632151 444.089517 819.565755 412.910803 819.565755 325.488543L819.565755 166.299158 837.824307 166.299158C859.759496 166.299158 877.574915 148.497587 877.574915 126.507004 877.574915 104.551041 859.759496 86.756394 837.824307 86.756394L160.132151 86.756394C138.169264 86.756394 120.36077 104.551041 120.36077 126.507004 120.36077 148.497587 138.169264 166.299158 160.132151 166.299158L178.369934 166.299158 178.369934 325.481619C178.369934 412.910803 264.303536 444.089517 327.034859 466.86251 347.903755 474.430428 367.609423 481.582907 379.034001 488.936181 391.905693 497.251889 392.563472 507.790197 392.618864 510.213593 392.618864 510.338225 391.995705 521.070405 379.054773 529.427657 367.637118 536.780931 347.959148 543.905714 327.124871 551.45286 264.338156 574.225853 178.369934 605.40457 178.369934 692.909917L178.369934 850.617567 160.132151 850.617567C138.169264 850.617567 120.36077 868.426059 120.36077 890.409719 120.36077 912.400306 138.169264 930.160333 160.132151 930.160333L837.81738 930.160333C859.759496 930.160333 877.567994 912.400306 877.567994 890.409719 877.567994 868.426059 859.759496 850.617567 837.824307 850.617567ZM337.463076 665.893207C314.87703 674.208919 299.921218 695.673278 299.921218 719.747982L299.921218 775.188347C299.921218 791.992862 313.547624 805.612345 330.359065 805.612345L667.578007 805.612345C684.382521 805.612345 698.008925 791.985935 698.008925 775.18142L698.008925 722.178301C698.008925 696.62879 682.076835 673.793482 658.099067 664.979245L523.489835 615.486584C507.654677 609.663512 490.27547 609.663512 474.440311 615.486584 474.440311 615.486584 388.755972 647.004576 337.463076 665.893207ZM304.440504 265.575976 304.440504 306.711383C304.440504 320.289322 312.472329 332.752498 325.053214 337.876248 339.766686 343.858573 358.551463 348.435328 370.05913 352.603568 397.53351 362.57411 422.695279 371.976885 445.648296 386.745749 471.460919 403.411785 527.628302 403.411785 553.44785 386.745749 576.400867 371.976885 602.455829 362.57411 629.930213 352.603568 641.493269 348.414557 661.005065 343.817029 676.217061 337.786237 688.971047 332.731726 697.175974 320.192386 697.175974 306.475967L697.175974 265.575976C697.175974 254.899188 688.520987 246.244204 677.844203 246.244204L323.772276 246.244204C313.095488 246.244204 304.440504 254.899188 304.440504 265.575976Z" fill="#29f4f2" p-id="69356"></path></svg>