<?xml version="1.0" standalone="no"?><!DOCTYPE svg PUBLIC "-//W3C//DTD SVG 1.1//EN" "http://www.w3.org/Graphics/SVG/1.1/DTD/svg11.dtd"><svg t="1774978019486" class="icon" viewBox="0 0 1024 1024" version="1.1" xmlns="http://www.w3.org/2000/svg" p-id="59309" xmlns:xlink="http://www.w3.org/1999/xlink" width="256" height="256"><path d="M399 886c-50.31 0-92.25-51.88-134.18-108.66-37.47-50.71-63.45-115.54-71.37-177.86-7.43-58.49-0.81-109.87 19.13-148.6 11.38-22.1 27.1-40.32 46.74-54.14 20.95-14.73 48.37-41.21 77.69-45.75 50.38-7.8 101.59-8.18 127 5 21.22 11.01 27.18 26.75 48 15 3.11-1.76 8.7-4.51 12-6 28.9-12.97 64.21-5.44 105.43 2.86 28.14 5.69 52.77 16.03 73.22 30.81 19.41 14.03 35.1 32.1 46.7 53.61 20.95 39.02 28.16 89.93 20.89 147.2-8.03 63.22-32.61 127.64-67.45 176.8-18.95 26.73-40.14 47.87-62.96 62.82-25.78 16.88-53 25.44-80.89 25.44-25.64 0-43.85-7.81-59.9-14.71-2.68-1.16-3.5 17.2-6.04 16.17-5.89-2.36-10.25 13.38-16 16-2.68 1.18-17.24 4.67-20 6-14.34 6.86-19.61 1-46 1l-12-3z" fill="#FF253D" p-id="59310"></path><path d="M376 880c-50.31 0-76.07-51.21-118-108-37.47-50.71-54.09-102.69-62-165-7.43-58.49-13.94-98.28 6-137 11.38-22.1 13.37-51.19 33-65 20.95-14.73 24.09-49.83 53.41-54.36 50.38-7.8 107.18-17.81 132.59-4.64 21.22 11.01 21 0 42.41 24.64 9.61 11.06 8.7-4.51 12-6 28.9-12.97 64.21-5.44 105.43 2.86 28.14 5.69 52.77 16.03 73.22 30.81 19.41 14.03 35.1 32.1 46.7 53.61 20.95 39.02 28.16 89.93 20.89 147.2-8.03 63.22-32.61 127.64-67.45 176.8-18.95 26.73-40.14 47.87-62.96 62.82-25.78 16.88-53 25.44-80.89 25.44-25.64 0-31.29 27.72-47.35 20.83-2.68-1.16-16.47 6.03-19 5-5.89-2.36-9.84-10.99-15.59-8.36-2.68 1.18-17.24 4.67-20 6-14.34 6.86 6.98-2.64-19.41-2.64l-13-5z" fill="#D8000C" p-id="59311" data-spm-anchor-id="a313x.search_index.0.i77.31b43a81aF6h2O" class="selected"></path><path d="M534.52 351.7s37.3-4.82 98.48-45.7c41-42 48-79 48-79 3.43-13.7 13.05-30.91 0.1-33.4 0 0-8.45-16.19-69.62 24.71-61.18 40.89-76.96 133.39-76.96 133.39z" fill="#1EBB81" p-id="59312"></path><path d="M430.51 907.91c-61.02 0-121.88-36.91-171.37-103.94-42.88-58.04-72.68-132.31-81.76-203.75-8.62-67.83-0.72-127.86 22.83-173.61 13.83-26.86 32.97-49.01 56.88-65.83 25.25-17.76 55.75-29.5 90.63-34.9 52.62-8.14 97.54-2.81 133.52 15.84 18.45 9.57 39.95 9.36 57.5-0.55 3.87-2.19 7.91-4.23 12-6.07 35.19-15.79 77.86-18.79 126.84-8.92 33.46 6.77 62.83 19.17 87.31 36.85 23.44 16.94 42.45 38.75 56.51 64.83 24.77 46.15 33.39 105.74 24.93 172.36-9.18 72.24-37.33 145.98-77.25 202.32-22.1 31.18-46.97 55.94-73.92 73.59-31.25 20.46-64.41 30.83-98.54 30.83-31.8 0-54.52-9.75-72.77-17.59-3.23-1.4-5.82-2.5-8.2-3.47-2.04-0.81-4.43-0.75-6.41 0.15-0.07 0.03-0.14 0.06-0.2 0.09-2.54 1.12-5.14 2.38-7.9 3.71l-0.55 0.27c-16.56 7.93-37.17 17.79-70.08 17.79z m-37.12-550.73c-12.68 0-26.12 1.1-40.3 3.29-29.52 4.57-55.04 14.31-75.85 28.94-19.24 13.53-34.68 31.44-45.9 53.22-20.3 39.43-26.95 92.39-19.23 153.17 8.34 65.69 35.75 133.99 75.19 187.37 42.72 57.86 93.58 89.73 143.21 89.73 24.97 0 40.22-7.3 54.97-14.36l0.42-0.2c3.02-1.46 5.87-2.84 8.95-4.2 10.65-4.81 22.98-5.08 33.85-0.72l0.1 0.04c2.66 1.08 5.49 2.28 8.93 3.77 16.82 7.22 34.29 14.72 58.9 14.72 27.21 0 53.91-8.45 79.36-25.11 23.27-15.25 44.99-36.96 64.54-64.55 36.7-51.79 62.61-119.76 71.08-186.49 7.54-59.36 0.26-111.7-21.03-151.37-11.52-21.36-27.06-39.21-46.18-53.04-20.4-14.74-45.21-25.14-73.73-30.91-41.67-8.39-77.19-6.19-105.57 6.54-3.1 1.4-6.19 2.96-9.14 4.63-27.89 15.74-61.84 16.17-90.82 1.14-20.05-10.4-44.09-15.61-71.76-15.61z" fill="#333333" p-id="59313"></path><path d="M356.8 776.75c-5.36 0-10.66-2.46-14.09-7.1-34.1-46.16-57.8-105.21-65.01-162.02-1.22-9.59 5.57-18.35 15.16-19.57 9.59-1.21 18.35 5.57 19.56 15.16 6.48 51.06 27.78 104.14 58.44 145.63 5.74 7.77 4.1 18.73-3.68 24.47a17.437 17.437 0 0 1-10.39 3.43z" fill="#FFFFFF" p-id="59314"></path><path d="M512 368.73c-9.77 0.14-17.74-8.2-17.76-17.96-0.16-90.9-46.78-125.28-70.11-136.8-7.36-3.63-11.15-11.93-9.14-19.89 2.72-10.74 14.66-16.32 24.58-11.38s23.27 13.15 36.17 25.44c24.4 23.26 53.49 66.97 53.49 143.08 0 9.58-7.7 17.36-17.24 17.5z" fill="#333333" p-id="59315"></path><path d="M533.41 366.23c-21.73 0-39.41-17.68-39.41-39.41 0-95.06 77.34-172.39 172.39-172.39 21.73 0 39.41 17.68 39.41 39.41 0 95.06-77.34 172.39-172.39 172.39z m132.99-176.8c-75.76 0-137.39 61.63-137.39 137.39 0 2.43 1.98 4.41 4.41 4.41 75.76 0 137.39-61.63 137.39-137.39 0-2.43-1.98-4.41-4.41-4.41z" fill="#333333" p-id="59316"></path></svg>