<?xml version="1.0" standalone="no"?><!DOCTYPE svg PUBLIC "-//W3C//DTD SVG 1.1//EN" "http://www.w3.org/Graphics/SVG/1.1/DTD/svg11.dtd"><svg t="1774977820356" class="icon" viewBox="0 0 1024 1024" version="1.1" xmlns="http://www.w3.org/2000/svg" p-id="52426" xmlns:xlink="http://www.w3.org/1999/xlink" width="256" height="256"><path d="M593.92 737.28c-180.906667 0-317.44-37.546667-406.186667-112.64-139.946667-119.466667-201.386667-317.44-177.493333-587.093333 0-17.066667 17.066667-30.72 34.133333-30.72 54.613333 3.413333 95.573333 6.826667 129.706667 10.24 13.653333 0 27.306667 3.413333 37.546667 6.826666 17.066667 3.413333 30.72 20.48 27.306666 40.96-3.413333 17.066667-20.48 30.72-40.96 27.306667-10.24 0-20.48-3.413333-34.133333-3.413333-23.893333-3.413333-54.613333-6.826667-92.16-6.826667-13.653333 228.693333 37.546667 395.946667 157.013333 494.933333 85.333333 71.68 228.693333 105.813333 430.08 95.573334h10.24c17.066667 0 34.133333 13.653333 37.546667 30.72 0 20.48-13.653333 34.133333-30.72 37.546666h-10.24c-23.893333-3.413333-47.786667-3.413333-71.68-3.413333z" fill="#2c2c2c" p-id="52427" data-spm-anchor-id="a313x.search_index.0.i57.31b43a81aF6h2O" class="selected"></path><path d="M679.253333 733.866667h-6.826666c-17.066667-3.413333-30.72-20.48-27.306667-40.96 30.72-177.493333 6.826667-314.026667-68.266667-406.186667-64.853333-78.506667-150.186667-136.533333-256-170.666667-17.066667-6.826667-27.306667-23.893333-20.48-44.373333 6.826667-17.066667 23.893333-27.306667 44.373334-20.48 119.466667 37.546667 215.04 102.4 286.72 191.146667 88.746667 109.226667 116.053333 262.826667 81.92 460.8-3.413333 20.48-17.066667 30.72-34.133334 30.72z" fill="#2c2c2c" p-id="52428" data-spm-anchor-id="a313x.search_index.0.i56.31b43a81aF6h2O" class="selected"></path><path d="M78.506667 430.08c-17.066667 0-30.72-13.653333-34.133334-30.72-3.413333-17.066667 10.24-34.133333 30.72-37.546667 139.946667-17.066667 252.586667-119.466667 279.893334-259.413333 3.413333-17.066667 20.48-30.72 40.96-27.306667 17.066667 3.413333 30.72 20.48 27.306666 40.96-34.133333 167.253333-170.666667 293.546667-341.333333 314.026667h-3.413333z" fill="#2c2c2c" p-id="52429" data-spm-anchor-id="a313x.search_index.0.i55.31b43a81aF6h2O" class="selected"></path><path d="M232.106667 167.253333m-34.133334 0a34.133333 34.133333 0 1 0 68.266667 0 34.133333 34.133333 0 1 0-68.266667 0Z" fill="#1296db" p-id="52430" data-spm-anchor-id="a313x.search_index.0.i54.31b43a81aF6h2O" class=""></path><path d="M604.16 1010.346667c-6.826667 0-13.653333-3.413333-20.48-6.826667-13.653333-6.826667-17.066667-23.893333-13.653333-37.546667 20.48-68.266667 37.546667-122.88 47.786666-157.013333 10.24-34.133333 17.066667-71.68 23.893334-112.64 3.413333-17.066667 17.066667-30.72 34.133333-30.72 37.546667 0 78.506667-3.413333 116.053333-10.24 37.546667-6.826667 95.573333-13.653333 170.666667-27.306667 17.066667-3.413333 30.72 6.826667 37.546667 20.48s3.413333 30.72-10.24 40.96l-365.226667 314.026667c-3.413333 3.413333-10.24 6.826667-20.48 6.826667z m102.4-276.48c-6.826667 34.133333-13.653333 64.853333-20.48 95.573333-3.413333 13.653333-6.826667 27.306667-13.653333 44.373333l180.906666-157.013333c-20.48 3.413333-37.546667 6.826667-54.613333 6.826667-27.306667 3.413333-61.44 6.826667-92.16 10.24z" fill="#1296db" p-id="52431" data-spm-anchor-id="a313x.search_index.0.i53.31b43a81aF6h2O" class=""></path></svg>